<?xml version="1.0" encoding="UTF-8" standalone="no"?>
<!DOCTYPE svg PUBLIC "-//W3C//DTD SVG 1.1//EN" "http://www.w3.org/Graphics/SVG/1.1/DTD/svg11.dtd">
<svg width="100%" height="100%" viewBox="0 0 97 128" version="1.1" xmlns="http://www.w3.org/2000/svg" xmlns:xlink="http://www.w3.org/1999/xlink" xml:space="preserve" xmlns:serif="http://www.serif.com/" style="fill-rule:evenodd;clip-rule:evenodd;stroke-linejoin:round;stroke-miterlimit:2;">
    <g id="vertical-white" transform="matrix(0.782258,0,0,0.914286,0,0)">
        <rect x="0" y="0" width="124" height="140" style="fill:none;"/>
        <g transform="matrix(2.33502,0,0,1.99783,-81.6863,-69.7865)">
            <g transform="matrix(1,0,0,1,-0.547468,-0.547468)">
                <path d="M74.991,84.386C74.991,82.613 73.619,82.716 71.908,82.722L71.908,81.439C73.824,81.37 74.495,81.336 74.495,79.947C74.495,79.043 73.977,78.382 73.145,78.382L70.685,78.382L70.685,86.256L72.942,86.256C74.423,86.256 74.991,85.275 74.991,84.386ZM77.253,84.929C77.253,86.187 76.561,86.978 76.027,87.335C75.716,87.549 75.045,87.865 73.433,87.865L68.188,87.865L68.188,76.795L73.365,76.795C74.541,76.795 75.102,76.996 75.576,77.294C76.142,77.642 76.658,78.263 76.658,79.482C76.658,80.868 76.232,81.828 74.268,82.008C76.736,81.951 77.253,83.441 77.253,84.929ZM59.704,76.795L59.704,87.865L66.815,87.865L66.815,86.024L62.203,86.024L62.203,76.795L59.704,76.795ZM41.656,86.156C42.524,86.156 43.558,85.668 43.558,83.729L43.558,80.713C43.558,78.91 42.524,78.421 41.656,78.421L38.591,78.421L38.591,86.156L41.656,86.156ZM42.024,87.865L36.092,87.865L36.092,76.795L41.637,76.795C44.804,76.795 46.037,77.982 46.037,81.03L46.037,83.463C46.037,86.674 44.949,87.865 42.024,87.865ZM55.363,80.674C55.363,78.759 54.678,78.345 52.752,78.345C50.824,78.345 50.141,78.759 50.141,80.674L50.141,83.991C50.141,85.954 50.824,86.403 52.752,86.403C54.678,86.403 55.363,85.954 55.363,83.991L55.363,80.674ZM57.87,80.659L57.87,84.145C57.87,85.702 57.389,86.821 56.464,87.395C55.75,87.894 54.5,88.147 52.752,88.147C50.979,88.147 49.763,87.901 49.018,87.381C48.097,86.841 47.632,85.754 47.632,84.145L47.632,80.659C47.632,79.055 48.079,78.029 49.027,77.416C49.937,76.828 51.12,76.601 52.752,76.601C54.421,76.601 55.706,76.881 56.468,77.412C57.399,78.039 57.87,79.131 57.87,80.659ZM87.788,76.794C87.306,77.648 83.903,83.82 83.903,83.82C83.903,83.82 83.904,87.312 83.902,87.865L81.216,87.865L81.216,83.803C81.216,83.803 77.94,77.641 77.475,76.794L79.978,76.794L82.648,81.801L85.411,76.794L87.788,76.794ZM84.301,97.419C82.84,97.324 81.682,97.356 81.682,95.721C81.682,94.577 82.603,93.958 84.222,93.958C84.904,93.958 85.921,93.991 86.937,94.323L86.937,93.133C86.048,92.815 84.777,92.767 84.254,92.767C82.158,92.767 80.157,93.419 80.157,95.831C80.157,98.165 81.665,98.785 83.539,98.849C85.079,98.896 86.238,99.023 86.238,100.737C86.238,101.88 85.444,102.659 83.412,102.659C82.73,102.659 81.284,102.595 80.252,102.214L80.252,103.468C81.173,103.85 82.856,103.912 83.38,103.912C85.555,103.912 87.762,103.183 87.762,100.579C87.762,97.975 86.048,97.531 84.301,97.419ZM76.426,98.34C76.426,95.371 75.76,93.958 73.347,93.958C70.934,93.958 70.267,95.371 70.267,98.34C70.267,101.308 70.934,102.722 73.347,102.722C75.76,102.722 76.426,101.308 76.426,98.34ZM77.935,98.34C77.935,101.817 76.935,103.912 73.347,103.912C69.759,103.912 68.758,101.817 68.758,98.34C68.758,94.863 69.759,92.767 73.347,92.767C76.935,92.767 77.935,94.863 77.935,98.34ZM60.84,99.531L60.791,99.531L57.441,92.958L55.584,92.958L55.584,103.722L57.013,103.722L57.013,100.706C57.013,98.817 56.934,96.594 56.918,94.705L56.965,94.705C57.362,95.609 57.649,96.308 58.077,97.149L60.268,101.468L61.363,101.468L63.555,97.149C63.983,96.308 64.269,95.609 64.666,94.705L64.713,94.705C64.697,96.594 64.618,98.817 64.618,100.706L64.618,103.722L66.047,103.722L66.047,92.958L64.19,92.958L60.84,99.531ZM45.582,94.085L48.773,94.085L48.773,103.722L50.218,103.722L50.218,94.085L53.409,94.085L53.409,92.958L45.582,92.958L45.582,94.085ZM42.76,99.944L41.395,95.943C41.141,95.181 41.014,94.752 40.839,94.196L40.807,94.196C40.632,94.752 40.505,95.181 40.251,95.943L38.886,99.944L42.76,99.944ZM41.728,92.958L45.57,103.722L44.077,103.722L43.156,101.071L38.489,101.071L37.584,103.722L36.092,103.722L39.918,92.958L41.728,92.958Z" style="fill:white;fill-rule:nonzero;"/>
            </g>
            <g transform="matrix(1,0,0,1,-0.547468,-0.547468)">
                <path d="M42.179,40.678L48.075,40.678C54.194,40.678 59.312,46.641 59.312,54.026C59.312,61.411 54.194,67.374 48.075,67.374L42.179,67.374L42.179,40.678ZM75.805,40.678L81.7,40.678L81.7,67.374L75.805,67.374C69.686,67.374 64.568,61.411 64.568,54.026C64.568,46.641 69.686,40.678 75.805,40.678ZM87.802,72.026L87.802,36.026L36.078,36.026L36.078,72.026L87.802,72.026Z" style="fill:white;fill-rule:nonzero;"/>
            </g>
        </g>
    </g>
</svg>
