<?xml version="1.0" encoding="UTF-8" standalone="no"?>
<!DOCTYPE svg PUBLIC "-//W3C//DTD SVG 1.1//EN" "http://www.w3.org/Graphics/SVG/1.1/DTD/svg11.dtd">
<svg width="100%" height="100%" viewBox="0 0 230 28" version="1.1" xmlns="http://www.w3.org/2000/svg" xmlns:xlink="http://www.w3.org/1999/xlink" xml:space="preserve" xmlns:serif="http://www.serif.com/" style="fill-rule:evenodd;clip-rule:evenodd;stroke-linejoin:round;stroke-miterlimit:2;">
    <g transform="matrix(1,0,0,1,-147,0)">
        <g id="horizontal-white" transform="matrix(2.37113,0,0,0.21875,-201.557,0)">
            <rect x="147" y="0" width="97" height="128" style="fill:none;"/>
            <g transform="matrix(0.281159,0,0,3.04762,133.301,-100.571)">
                <path d="M207.211,63.922L201.487,63.922L201.487,43.957L207.724,43.957C209.834,43.957 211.149,45.634 211.149,47.924C211.149,51.446 209.446,51.534 204.59,51.709L204.59,54.96C208.928,54.945 212.407,54.686 212.407,59.18C212.407,61.435 210.965,63.922 207.211,63.922ZM210.572,53.151C215.554,52.694 216.634,50.259 216.634,46.747C216.634,43.656 215.322,42.082 213.89,41.198C212.686,40.442 211.265,39.933 208.283,39.933L195.154,39.933L195.154,68.001L208.455,68.001C212.541,68.001 214.243,67.202 215.033,66.659C216.385,65.753 218.14,63.748 218.14,60.557C218.14,56.785 216.83,53.006 210.572,53.151ZM179.98,63.333L191.677,63.333L191.677,68.001L173.646,68.001L173.646,39.933L179.98,39.933L179.98,63.333ZM132.706,57.515C132.706,62.43 130.082,63.669 127.884,63.669L120.112,63.669L120.112,44.055L127.884,44.055C130.082,44.055 132.706,45.295 132.706,49.867L132.706,57.515ZM127.834,39.933L113.775,39.933L113.775,68.001L128.817,68.001C136.234,68.001 138.991,64.981 138.991,56.839L138.991,50.672C138.991,42.944 135.865,39.933 127.834,39.933ZM162.639,58.178C162.639,63.158 160.899,64.293 156.017,64.293C151.131,64.293 149.395,63.158 149.395,58.178L149.395,49.768C149.395,44.912 151.131,43.863 156.017,43.863C160.899,43.863 162.639,44.912 162.639,49.768L162.639,58.178ZM165.439,41.498C163.509,40.15 160.249,39.442 156.017,39.442C151.881,39.442 148.878,40.019 146.574,41.508C144.17,43.062 143.035,45.663 143.035,49.73L143.035,58.57C143.035,62.649 144.215,65.405 146.548,66.775C148.439,68.092 151.52,68.716 156.017,68.716C160.449,68.716 163.619,68.075 165.429,66.81C167.774,65.354 168.996,62.516 168.996,58.57L168.996,49.73C168.996,45.856 167.799,43.087 165.439,41.498ZM244.852,39.932C243.631,42.095 235.003,57.745 235.003,57.745C235.003,57.745 235.005,66.6 235.002,68.001L228.189,68.001L228.189,57.703C228.189,57.703 219.881,42.08 218.703,39.932L225.049,39.932L231.819,52.627L238.825,39.932L244.852,39.932ZM388.185,41.453L387.449,41.453L387.449,40.352L388.185,40.352C388.638,40.352 388.772,40.503 388.772,40.866C388.772,41.346 388.657,41.453 388.185,41.453ZM389.321,40.894C389.321,40.112 388.939,39.899 388.098,39.899L386.899,39.899L386.899,42.988L387.44,42.988L387.44,41.906L388.177,41.906L388.709,42.988L389.304,42.988L388.709,41.816C389.037,41.737 389.321,41.346 389.321,40.894ZM388.035,44.062C386.312,44.062 385.47,43.059 385.47,41.47C385.47,39.882 386.312,38.878 388.035,38.878C389.757,38.878 390.6,39.882 390.6,41.47C390.6,43.059 389.757,44.062 388.035,44.062ZM388.035,38.355C386.003,38.355 384.875,39.536 384.875,41.47C384.875,43.405 386.003,44.586 388.035,44.586C390.067,44.586 391.194,43.405 391.194,41.47C391.194,39.536 390.067,38.355 388.035,38.355ZM381.902,59.806C381.902,66.594 376.149,68.498 370.477,68.498C369.112,68.498 364.724,68.332 362.324,67.339L362.324,64.069C365.015,65.062 368.781,65.228 370.56,65.228C375.858,65.228 377.929,63.201 377.929,60.219C377.929,55.749 374.907,55.418 370.892,55.294C366.008,55.127 362.075,53.514 362.075,47.43C362.075,41.138 367.29,39.44 372.755,39.44C374.12,39.44 377.432,39.564 379.749,40.393L379.749,43.497C377.1,42.627 374.451,42.544 372.671,42.544C368.449,42.544 366.049,44.159 366.049,47.14C366.049,51.403 369.071,51.32 372.879,51.568C377.432,51.858 381.902,53.017 381.902,59.806ZM346.025,65.393C339.733,65.393 337.996,61.709 337.996,53.97C337.996,46.229 339.733,42.544 346.025,42.544C352.316,42.544 354.056,46.229 354.056,53.97C354.056,61.709 352.316,65.393 346.025,65.393ZM346.025,39.44C336.671,39.44 334.062,44.905 334.062,53.97C334.062,63.035 336.671,68.498 346.025,68.498C355.38,68.498 357.988,63.035 357.988,53.97C357.988,44.905 355.38,39.44 346.025,39.44ZM323.853,39.937L328.696,39.937L328.696,68.001L324.971,68.001L324.971,60.137C324.971,55.211 325.178,49.416 325.219,44.49L325.095,44.49C324.06,46.849 323.315,48.671 322.197,50.865L316.485,62.124L313.629,62.124L307.918,50.865C306.799,48.671 306.055,46.849 305.019,44.49L304.895,44.49C304.937,49.416 305.144,55.211 305.144,60.137L305.144,68.001L301.419,68.001L301.419,39.937L306.262,39.937L314.995,57.074L315.119,57.074L323.853,39.937ZM277.038,39.937L297.445,39.937L297.445,42.875L289.124,42.875L289.124,68.001L285.357,68.001L285.357,42.875L277.038,42.875L277.038,39.937ZM261.355,58.15L264.916,47.719C265.578,45.732 265.909,44.614 266.364,43.166L266.448,43.166C266.903,44.614 267.234,45.732 267.896,47.719L271.457,58.15L261.355,58.15ZM264.048,39.937L254.071,68.001L257.962,68.001L260.321,61.088L272.491,61.088L274.892,68.001L278.783,68.001L268.766,39.937L264.048,39.937Z" style="fill:white;fill-rule:nonzero;"/>
            </g>
            <g transform="matrix(0.281159,0,0,3.04762,133.301,-100.571)">
                <path d="M57.825,40.652L63.721,40.652C69.84,40.652 74.956,46.616 74.956,54C74.956,61.385 69.84,67.349 63.721,67.349L57.825,67.349L57.825,40.652ZM91.451,40.652L97.346,40.652L97.346,67.349L91.451,67.349C85.331,67.349 80.214,61.385 80.214,54C80.214,46.616 85.331,40.652 91.451,40.652ZM103.448,72L103.448,36L51.723,36L51.723,72L103.448,72Z" style="fill:white;fill-rule:nonzero;"/>
            </g>
        </g>
    </g>
</svg>
