<?xml version="1.0" encoding="UTF-8" standalone="no"?>
<!DOCTYPE svg PUBLIC "-//W3C//DTD SVG 1.1//EN" "http://www.w3.org/Graphics/SVG/1.1/DTD/svg11.dtd">
<svg width="100%" height="100%" viewBox="0 0 512 128" version="1.1" xmlns="http://www.w3.org/2000/svg" xmlns:xlink="http://www.w3.org/1999/xlink" xml:space="preserve" xmlns:serif="http://www.serif.com/" style="fill-rule:evenodd;clip-rule:evenodd;stroke-linejoin:round;stroke-miterlimit:2;">
    <g transform="matrix(1,0,0,1,-358,-160)">
        <g id="transparent-on-black" serif:id="transparent on black" transform="matrix(1,0,0,1,-562,160)">
            <rect x="920" y="0" width="512" height="128" style="fill:none;"/>
            <g transform="matrix(1.65714,0,0,1,325.143,0)">
                <g transform="matrix(0.603448,0,0,1,362.267,8.36782)">
                    <path d="M154.3,17.5C152.5,10.8 147.2,5.5 140.5,3.7C128.4,0.4 79.7,0.4 79.7,0.4C79.7,0.4 31,0.5 18.9,3.8C12.2,5.6 6.9,10.9 5.1,17.6C1.9,29.7 1.9,55 1.9,55C1.9,55 1.9,80.3 5.2,92.5C7,99.2 12.3,104.5 19,106.3C31.1,109.6 79.8,109.6 79.8,109.6C79.8,109.6 128.5,109.6 140.6,106.3C147.3,104.5 152.6,99.2 154.4,92.5C157.7,80.4 157.7,55 157.7,55C157.7,55 157.6,29.7 154.3,17.5Z" style="fill:rgb(255,0,0);fill-rule:nonzero;"/>
                    <path d="M64.2,78.4L104.6,55L64.2,31.6L64.2,78.4Z" style="fill:white;fill-rule:nonzero;"/>
                </g>
                <g transform="matrix(0.603448,0,0,1,362.267,8.36782)">
                    <path d="M227.9,99.7C224.8,97.6 222.6,94.4 221.3,90C220,85.6 219.4,79.8 219.4,72.5L219.4,62.6C219.4,55.3 220.1,49.3 221.6,44.9C223.1,40.4 225.4,37.2 228.6,35.2C231.8,33.2 235.9,32.1 241,32.1C246,32.1 250.1,33.1 253.1,35.2C256.1,37.3 258.4,40.5 259.8,44.9C261.2,49.3 261.9,55.2 261.9,62.5L261.9,72.4C261.9,79.7 261.2,85.5 259.8,89.9C258.4,94.3 256.2,97.5 253.1,99.6C250,101.6 245.8,102.7 240.6,102.7C235.2,102.8 231,101.7 227.9,99.7ZM245.2,89C246.1,86.8 246.5,83.1 246.5,78.1L246.5,56.8C246.5,51.9 246.1,48.3 245.2,46.1C244.3,43.8 242.8,42.7 240.7,42.7C238.6,42.7 237.2,43.8 236.3,46.1C235.4,48.4 235,51.9 235,56.8L235,78.1C235,83.1 235.4,86.8 236.2,89C237,91.2 238.5,92.3 240.7,92.3C242.8,92.3 244.3,91.2 245.2,89Z" style="fill:white;fill-rule:nonzero;"/>
                    <path d="M464.4,72.6L464.4,76.2C464.4,80.6 464.5,83.9 464.8,86.1C465.1,88.3 465.6,89.9 466.4,90.9C467.2,91.9 468.5,92.4 470.2,92.4C472.5,92.4 474.1,91.5 474.9,89.7C475.8,87.9 476.2,84.9 476.3,80.8L489.6,81.6C489.7,82.2 489.7,83 489.7,84C489.7,90.3 488,95 484.5,98.1C481,101.2 476.2,102.8 469.9,102.8C462.3,102.8 457,100.4 454,95.7C451,91 449.4,83.6 449.4,73.7L449.4,61.6C449.4,51.4 451,43.9 454.1,39.2C457.3,34.5 462.7,32.1 470.3,32.1C475.6,32.1 479.6,33.1 482.4,35C485.2,36.9 487.2,39.9 488.4,44C489.6,48.1 490.1,53.7 490.1,60.9L490.1,72.6L464.4,72.6ZM466.4,43.9C465.6,44.9 465.1,46.4 464.8,48.6C464.5,50.8 464.4,54.1 464.4,58.6L464.4,63.5L475.6,63.5L475.6,58.6C475.6,54.2 475.5,50.9 475.2,48.6C474.9,46.3 474.4,44.7 473.6,43.8C472.8,42.9 471.6,42.4 470,42.4C468.3,42.5 467.1,43 466.4,43.9Z" style="fill:white;fill-rule:nonzero;"/>
                    <path d="M190.5,71.4L173,8.2L188.3,8.2L194.4,36.8C196,43.9 197.1,49.9 197.9,54.8L198.3,54.8C198.8,51.2 200,45.3 201.8,36.9L208.1,8.2L223.4,8.2L205.7,71.3L205.7,101.6L190.6,101.6L190.6,71.4L190.5,71.4Z" style="fill:white;fill-rule:nonzero;"/>
                    <path d="M311.5,33.4L311.5,101.7L299.5,101.7L298.2,93.3L297.9,93.3C294.6,99.6 289.7,102.8 283.2,102.8C278.7,102.8 275.3,101.3 273.2,98.3C271,95.3 270,90.7 270,84.4L270,33.4L285.4,33.4L285.4,83.5C285.4,86.5 285.7,88.7 286.4,90C287.1,91.3 288.2,91.9 289.7,91.9C291,91.9 292.3,91.5 293.5,90.7C294.7,89.9 295.6,88.8 296.2,87.6L296.2,33.4L311.5,33.4Z" style="fill:white;fill-rule:nonzero;"/>
                    <path d="M390.4,33.4L390.4,101.7L378.4,101.7L377.1,93.3L376.8,93.3C373.5,99.6 368.6,102.8 362.1,102.8C357.6,102.8 354.2,101.3 352.1,98.3C349.9,95.3 348.9,90.7 348.9,84.4L348.9,33.4L364.3,33.4L364.3,83.5C364.3,86.5 364.6,88.7 365.3,90C366,91.3 367.1,91.9 368.6,91.9C369.9,91.9 371.2,91.5 372.4,90.7C373.6,89.9 374.5,88.8 375.1,87.6L375.1,33.4L390.4,33.4Z" style="fill:white;fill-rule:nonzero;"/>
                    <path d="M353.3,20.6L338,20.6L338,101.7L323,101.7L323,20.6L307.7,20.6L307.7,8.2L353.2,8.2L353.2,20.6L353.3,20.6Z" style="fill:white;fill-rule:nonzero;"/>
                    <path d="M441.2,44.3C440.3,40 438.8,36.9 436.7,34.9C434.6,33 431.8,32 428.1,32C425.3,32 422.6,32.8 420.2,34.4C417.7,36 415.9,38.1 414.5,40.7L414.4,40.7L414.4,4.7L399.6,4.7L399.6,101.6L412.3,101.6L413.9,95.1L414.2,95.1C415.4,97.4 417.2,99.2 419.5,100.6C421.9,101.9 424.5,102.6 427.4,102.6C432.6,102.6 436.4,100.2 438.9,95.4C441.3,90.6 442.6,83.1 442.6,73L442.6,62.2C442.6,54.6 442.1,48.6 441.2,44.3ZM427.1,72.2C427.1,77.2 426.9,81.1 426.5,83.9C426.1,86.7 425.4,88.7 424.4,89.9C423.4,91.1 422.1,91.7 420.5,91.7C419.2,91.7 418.1,91.4 417,90.8C415.9,90.2 415.1,89.3 414.4,88.1L414.4,49.3C414.9,47.4 415.8,45.9 417.1,44.7C418.4,43.5 419.7,42.9 421.2,42.9C422.8,42.9 424,43.5 424.8,44.7C425.7,45.9 426.2,48 426.6,50.9C426.9,53.8 427.1,57.9 427.1,63.3L427.1,72.2Z" style="fill:white;fill-rule:nonzero;"/>
                </g>
            </g>
        </g>
    </g>
</svg>
