<?xml version="1.0" encoding="UTF-8" standalone="no"?>
<!DOCTYPE svg PUBLIC "-//W3C//DTD SVG 1.1//EN" "http://www.w3.org/Graphics/SVG/1.1/DTD/svg11.dtd">
<svg width="100%" height="100%" viewBox="0 0 284 128" version="1.1" xmlns="http://www.w3.org/2000/svg" xmlns:xlink="http://www.w3.org/1999/xlink" xml:space="preserve" xmlns:serif="http://www.serif.com/" style="fill-rule:evenodd;clip-rule:evenodd;stroke-linejoin:round;stroke-miterlimit:2;">
    <g transform="matrix(1,0,0,1,-2,-152.952)">
        <g id="Artboard2" transform="matrix(0.268848,0,0,1,-295.442,152.952)">
            <rect x="1106.36" y="0" width="1056.36" height="128" style="fill:none;"/>
            <g id="cloud" transform="matrix(2.66305,0,0,0.714585,514.406,-322.232)">
                <path d="M235.2,608.6C237.5,608.6 239.4,606.7 239.4,604.4C244,583.6 246.4,567 239.8,546.4C239.6,544 237.6,542.3 235.2,542.3C232.8,542.3 230.8,544.1 230.6,546.4C225.2,566.8 227,583.9 231,604.4C231,606.7 232.9,608.6 235.2,608.6Z" style="fill:white;fill-rule:nonzero;"/>
                <path d="M429.8,627L563.2,627C592.4,627 617.8,604.7 618.6,575.6C619,561.3 613.6,547.4 603.6,537.1C593.6,526.8 579.8,521 565.3,521C560.5,521 555.7,521.6 551.1,523C545.9,498.9 530.6,478 509.2,465.5C495.6,457.4 480,453.2 464.2,453.3C438.4,453.3 426.2,461.6 426.2,461.6C421.5,463.6 418.6,468.3 418.8,473.3L418.8,616C418.7,622 423.7,627 429.8,627Z" style="fill:white;fill-rule:nonzero;"/>
                <path d="M266.8,619.5C271.2,588.6 273.3,562.5 267,531.7C266.7,529.4 264.7,527.7 262.4,527.7C260.1,527.7 258.1,529.4 257.8,531.7C252.3,562.1 254,589 258,619.5C258.4,624.1 266.4,624 266.8,619.5Z" style="fill:white;fill-rule:nonzero;"/>
                <path d="M397.8,627.4C400.2,627.4 402.1,625.5 402.1,623.1C409.1,574.8 406.1,530.8 402.1,482.4C402.1,480 400.2,478.1 397.8,478.1C395.4,478.1 393.5,480 393.5,482.4C389.9,530.3 387,575.3 393.5,623.1C393.4,625.5 395.4,627.4 397.8,627.4Z" style="fill:white;fill-rule:nonzero;"/>
                <path d="M370.6,627.2C372.9,627.2 374.8,625.5 375.1,623.3C381.2,580 379.8,542.2 375.2,499.1C375.2,496.6 373.2,494.6 370.7,494.6C368.2,494.6 366.2,496.6 366.2,499.1C362,541.9 360.8,580.6 366.2,623.3C366.4,625.5 368.3,627.2 370.6,627.2Z" style="fill:white;fill-rule:nonzero;"/>
                <path d="M316.7,627.4C319,627.4 320.9,625.7 321.1,623.4C326.5,584.9 326.5,545.9 321.2,507.5C321.2,505 319.2,503 316.7,503C314.2,503 312.2,505 312.2,507.5C307.2,546 307.2,585 312.2,623.4C312.5,625.6 314.4,627.4 316.7,627.4Z" style="fill:white;fill-rule:nonzero;"/>
                <path d="M343.7,627.5C346.1,627.5 348,625.6 348,623.2C354.4,578.9 352.4,539.2 348,495C348,492.6 346.1,490.7 343.7,490.7C341.3,490.7 339.4,492.6 339.4,495C335.2,538.7 333.2,579.6 339.4,623.2C339.4,625.5 341.3,627.5 343.7,627.5Z" style="fill:white;fill-rule:nonzero;"/>
                <path d="M289.3,627.7C291.6,627.7 293.5,625.8 293.5,623.5C297.7,592.9 300.8,566.3 294,536.1C293.8,533.8 291.9,532.1 289.6,532.1C287.3,532.1 285.4,533.8 285.2,536.1C278.7,566 281.8,593.4 285.2,623.5C285.1,625.8 287,627.7 289.3,627.7Z" style="fill:white;fill-rule:nonzero;"/>
            </g>
        </g>
    </g>
</svg>
