<?xml version="1.0" standalone="no"?>
<!DOCTYPE svg PUBLIC "-//W3C//DTD SVG 20010904//EN"
 "http://www.w3.org/TR/2001/REC-SVG-20010904/DTD/svg10.dtd">
<svg version="1.0" xmlns="http://www.w3.org/2000/svg"
 width="1024.000000pt" height="1024.000000pt" viewBox="0 0 1024.000000 1024.000000"
 preserveAspectRatio="xMidYMid meet">
<metadata>
Created by potrace 1.14, written by Peter Selinger 2001-2017
</metadata>
<g transform="translate(0.000000,1024.000000) scale(0.100000,-0.100000)"
fill="#000000" stroke="none">
<path d="M4920 9725 c0 -8 64 -45 77 -45 8 0 8 6 0 25 -12 25 -27 34 -27 15 0
-6 -9 -6 -25 0 -14 5 -25 7 -25 5z"/>
<path d="M5035 9710 c3 -5 8 -10 11 -10 2 0 4 5 4 10 0 6 -5 10 -11 10 -5 0
-7 -4 -4 -10z"/>
<path d="M5093 9713 c-7 -3 -13 -11 -13 -19 0 -8 -6 -11 -16 -7 -14 5 -16 2
-10 -20 3 -14 2 -29 -4 -32 -18 -11 -10 -22 21 -29 24 -5 30 -10 28 -28 -2
-13 0 -28 4 -34 4 -8 -1 -11 -17 -10 -19 1 -22 4 -15 18 14 26 11 48 -7 48
-14 0 -14 -3 -4 -15 15 -18 -1 -20 -18 -3 -10 10 -15 10 -21 0 -7 -11 -9 -10
-14 2 -4 10 -1 16 8 16 8 0 15 4 15 9 0 5 -11 9 -23 9 -20 0 -23 -5 -21 -27 2
-14 1 -18 -2 -8 -3 9 -10 17 -15 17 -6 0 -8 10 -5 23 3 12 3 17 0 10 -7 -15
-70 11 -66 27 1 6 -7 8 -22 4 -14 -3 -27 -1 -31 7 -6 9 -2 11 13 7 12 -4 25
-2 28 3 3 5 -4 10 -15 11 -12 0 -27 1 -33 2 -7 1 -12 -5 -10 -11 3 -16 -3 -16
-27 -1 -11 7 -26 8 -37 3 -21 -9 -37 -13 -72 -18 -13 -2 -27 -9 -31 -16 -6
-10 -9 -9 -14 2 -6 16 -57 12 -57 -5 0 -6 -6 -6 -14 1 -10 9 -16 9 -21 1 -4
-6 -13 -9 -21 -6 -8 3 -14 -1 -14 -9 0 -8 -8 -15 -18 -15 -10 0 -23 -8 -30
-17 -51 -74 -72 -110 -72 -123 0 -8 -9 -26 -20 -40 -22 -28 -27 -64 -7 -58 6
3 20 20 29 39 20 43 43 65 53 49 4 -6 1 -18 -6 -26 -10 -12 -9 -20 1 -39 18
-33 3 -101 -21 -97 -18 3 -56 -77 -42 -87 4 -3 17 -16 27 -28 19 -23 19 -23
-7 -23 -15 0 -27 6 -27 13 0 15 -39 66 -40 51 0 -21 49 -110 74 -133 27 -26
33 -22 16 10 -6 10 -7 19 -3 19 4 0 17 -20 28 -45 11 -25 23 -45 28 -45 5 0 5
-9 2 -20 -3 -11 -2 -20 3 -20 6 0 20 -11 33 -25 19 -19 31 -24 59 -20 19 2 27
2 18 -1 -19 -6 -25 -34 -8 -34 6 0 10 -4 10 -8 0 -11 -43 -9 -52 2 -3 5 -23 1
-44 -9 l-37 -18 24 -13 c13 -7 34 -13 47 -14 12 0 22 -4 22 -10 0 -5 7 -10 15
-10 23 0 18 -17 -7 -25 -26 -9 -42 -11 -81 -14 -19 0 -26 -5 -21 -13 11 -18
-25 -39 -47 -27 -13 6 -19 6 -19 -1 0 -5 -13 -10 -30 -10 -16 0 -31 -4 -31
-10 -2 -13 -4 -21 -12 -40 -3 -8 -5 -26 -4 -40 2 -22 -2 -25 -30 -24 -18 1
-33 -2 -33 -7 0 -13 -81 -49 -111 -49 -15 0 -30 -4 -34 -9 -3 -5 -18 -12 -34
-16 -16 -3 -35 -12 -41 -20 -6 -8 -18 -11 -26 -8 -8 3 -14 -1 -14 -8 0 -8 -17
-22 -38 -32 -20 -9 -52 -37 -69 -61 -34 -45 -44 -68 -18 -42 12 12 22 13 43 6
25 -10 26 -9 8 5 -16 12 -17 15 -4 15 9 0 24 -12 34 -27 15 -24 15 -26 1 -14
-10 7 -17 9 -17 3 0 -5 -9 -8 -20 -5 -12 3 -29 -2 -41 -13 -15 -14 -22 -15
-28 -6 -5 8 -8 2 -8 -16 0 -18 -10 -41 -26 -58 -15 -16 -27 -36 -27 -45 0 -9
-7 -20 -16 -23 -10 -4 -14 -14 -11 -26 6 -22 -8 -28 -16 -7 -2 6 -8 8 -13 4
-5 -5 -1 -13 9 -19 18 -9 18 -11 -2 -25 -27 -18 -27 -36 -1 -28 28 9 25 -9 -4
-29 -14 -8 -28 -26 -32 -38 -3 -13 -10 -25 -14 -28 -12 -8 -58 -116 -63 -146
-2 -16 -7 -37 -11 -46 -11 -24 0 -49 24 -55 17 -5 17 -7 5 -20 -20 -19 -20
-73 0 -73 8 0 19 -9 25 -20 7 -12 16 -17 27 -13 11 4 14 3 9 -6 -4 -6 -2 -18
4 -27 7 -8 14 -47 17 -87 6 -117 7 -122 22 -122 8 0 16 -6 19 -13 2 -7 -2 -10
-12 -6 -11 4 -16 1 -16 -11 0 -11 5 -15 15 -11 18 6 20 -5 4 -21 -13 -13 -5
-43 11 -43 7 0 9 9 6 23 l-6 22 11 -22 c12 -24 5 -58 -10 -48 -5 3 -12 1 -16
-5 -3 -5 -2 -10 4 -10 5 0 20 -22 34 -50 15 -30 20 -50 14 -50 -9 0 -8 -3 0
-8 7 -4 14 -19 15 -32 2 -14 13 -36 26 -50 12 -14 22 -28 22 -32 0 -5 7 -8 15
-8 18 0 19 -12 3 -28 -9 -9 -9 -12 0 -12 7 0 12 5 12 11 0 6 6 9 13 6 6 -2 11
-14 9 -27 -2 -13 1 -20 6 -16 6 4 14 1 17 -5 4 -6 -2 -13 -14 -16 -24 -6 -28
-23 -6 -23 8 0 15 -7 15 -15 0 -13 4 -14 21 -5 11 7 27 9 35 6 9 -3 14 1 14
12 1 16 1 16 14 0 7 -10 23 -18 35 -18 15 0 21 -6 20 -22 -1 -18 -2 -19 -6 -5
-5 21 -34 19 -41 -2 -3 -8 0 -11 7 -7 6 4 11 3 11 -2 0 -12 -44 -27 -87 -30
-16 -2 -20 -7 -16 -22 4 -16 8 -18 20 -9 10 9 17 9 25 1 7 -7 22 -12 35 -12
22 0 32 -15 15 -22 -5 -1 -12 -15 -16 -30 -5 -23 -3 -28 11 -28 22 1 55 25 46
33 -3 4 -1 7 6 7 7 0 11 -10 10 -22 -2 -13 0 -28 4 -35 6 -10 14 -80 21 -186
1 -21 -1 -40 -4 -42 -3 -2 -3 -30 1 -62 4 -32 5 -89 2 -128 -3 -38 0 -111 6
-161 9 -73 8 -100 -3 -137 -7 -25 -12 -47 -11 -49 2 -2 5 -33 9 -69 3 -37 9
-74 12 -83 11 -28 -14 -70 -54 -91 -30 -16 -37 -26 -37 -50 0 -24 7 -33 35
-47 19 -10 40 -29 47 -42 17 -32 12 -100 -9 -146 -15 -31 -48 -125 -48 -134 0
-2 8 -6 18 -8 14 -4 17 -13 14 -47 -2 -22 -8 -41 -13 -41 -4 0 -7 -35 -6 -77
2 -56 9 -91 25 -125 12 -26 22 -54 22 -62 0 -9 4 -16 9 -16 12 0 20 -24 27
-83 4 -29 15 -75 25 -103 20 -53 29 -189 15 -231 -4 -13 -3 -23 2 -23 5 0 7
-11 4 -25 -2 -14 -8 -25 -11 -25 -4 0 -8 -6 -9 -12 -6 -56 -10 -77 -20 -101
-7 -16 -15 -47 -19 -70 -3 -23 -17 -63 -30 -88 -13 -26 -23 -52 -23 -59 0 -11
-9 -41 -51 -178 -10 -34 -19 -72 -19 -85 0 -12 -9 -40 -19 -62 -26 -55 -38
-96 -55 -195 -8 -47 -23 -119 -32 -160 -9 -41 -16 -91 -15 -112 1 -29 -4 -41
-26 -59 -16 -12 -21 -20 -12 -16 13 4 15 0 11 -21 -3 -14 -12 -34 -21 -44 -15
-17 -46 -95 -58 -148 -4 -14 -28 -63 -55 -109 -26 -46 -48 -89 -48 -95 0 -7
-5 -17 -11 -23 -6 -6 -12 -17 -13 -24 -2 -8 -14 -39 -28 -69 -24 -52 -40 -89
-43 -100 -8 -33 -32 -90 -51 -123 -13 -23 -24 -49 -24 -58 0 -9 -7 -22 -15
-29 -9 -7 -14 -19 -11 -27 3 -7 1 -13 -4 -13 -6 0 -10 -8 -10 -19 0 -11 -9
-21 -21 -24 -13 -4 -18 -10 -13 -18 4 -7 3 -10 -3 -6 -11 7 -57 -38 -66 -65
-9 -25 18 -23 43 2 12 12 25 18 30 15 5 -3 28 4 52 16 33 17 46 19 60 10 15
-9 20 -8 24 4 4 8 12 15 20 15 16 0 45 40 38 52 -3 4 1 8 9 8 8 0 24 15 35 32
12 18 34 51 51 73 39 53 144 231 161 275 8 19 22 44 32 55 35 37 176 338 188
400 6 33 18 85 25 115 8 30 17 73 20 95 2 22 10 63 15 90 6 28 12 68 15 90 2
22 17 83 34 135 50 157 66 214 64 230 -1 8 4 32 13 54 8 21 13 41 10 44 -3 2
1 16 8 31 7 14 16 49 20 76 3 28 15 74 25 102 12 34 18 72 16 110 -5 122 -16
239 -26 267 -5 16 -9 45 -9 65 0 38 -19 100 -36 122 -15 19 -24 59 -34 151 -4
42 -12 82 -16 90 -5 7 -9 20 -10 28 -1 8 -4 36 -8 63 -4 37 -3 47 9 47 20 0
19 5 -7 41 -23 31 -24 33 -17 261 2 42 -2 72 -10 82 -28 33 -31 88 -10 161 12
39 23 77 26 85 8 21 3 52 -11 70 -19 22 -34 96 -35 165 0 34 -5 74 -12 90 -6
17 -12 74 -14 127 -2 99 7 142 19 94 3 -14 13 -26 22 -26 11 0 13 -6 9 -20 -4
-13 -2 -20 7 -20 40 0 90 -23 98 -46 9 -22 12 -23 37 -12 15 7 33 16 40 21 7
5 15 2 22 -10 28 -48 29 -49 51 -21 17 23 25 26 44 18 13 -5 27 -6 30 -3 3 4
6 1 6 -5 0 -7 11 -12 25 -12 28 0 35 -20 8 -20 -24 -1 -56 -26 -49 -39 4 -6
13 -8 21 -4 8 3 15 0 15 -6 0 -6 -6 -11 -14 -11 -14 0 -26 -21 -26 -46 0 -8 6
-14 14 -14 8 0 17 -8 20 -17 5 -12 10 -13 18 -5 8 8 8 15 -2 27 -10 12 -10 15
4 15 10 0 14 -5 11 -11 -4 -6 2 -13 14 -16 12 -3 21 -9 21 -14 0 -5 -7 -6 -15
-3 -8 4 -17 -1 -21 -10 -3 -9 -10 -16 -15 -16 -13 0 -52 -41 -45 -47 3 -4 1
-11 -4 -18 -7 -8 -1 -10 21 -7 21 3 29 9 25 19 -4 9 -1 13 6 11 6 -2 13 -26
15 -54 5 -83 40 -170 60 -150 4 3 -2 13 -13 21 -18 14 -18 14 6 32 14 10 35
16 46 15 12 -2 25 1 28 7 5 7 15 7 33 0 15 -5 31 -8 37 -6 6 3 17 -2 24 -9 10
-12 10 -14 -3 -14 -8 0 -15 -4 -15 -10 0 -5 9 -10 20 -10 16 0 20 -7 20 -33 0
-18 9 -50 20 -72 11 -22 20 -52 20 -67 0 -15 5 -30 10 -33 13 -8 13 -42 -1
-47 -5 -2 -7 -11 -4 -21 4 -9 10 -15 15 -12 4 2 13 -37 20 -87 12 -82 11 -101
-5 -185 -15 -78 -16 -96 -5 -103 9 -6 11 -23 7 -61 l-6 -54 14 49 c8 28 12 53
9 58 -3 4 0 8 6 8 19 0 22 -28 4 -54 -12 -19 -15 -39 -11 -74 5 -50 -5 -82
-27 -82 -15 0 -30 -29 -20 -39 4 -3 9 0 11 7 3 6 9 12 15 12 7 0 7 -5 -1 -13
-6 -8 -8 -17 -4 -20 3 -4 -3 -7 -14 -7 -16 0 -22 -9 -27 -40 -6 -40 -19 -51
-30 -27 -5 9 -7 9 -12 0 -3 -7 -12 -13 -19 -13 -7 0 -15 -6 -18 -12 -2 -7 -8
-9 -13 -5 -4 4 -3 22 3 40 l12 32 -22 -30 c-12 -16 -37 -45 -55 -63 -18 -19
-25 -32 -17 -28 8 3 15 2 15 -2 -1 -11 -45 -59 -61 -65 -10 -4 -9 -6 4 -6 10
-1 17 -4 15 -9 -1 -4 -27 -54 -56 -110 -31 -60 -53 -115 -52 -130 4 -55 0 -74
-13 -69 -8 3 -23 -13 -38 -41 -13 -26 -30 -53 -37 -61 -8 -8 -11 -22 -9 -32 3
-11 0 -19 -5 -19 -6 0 -4 -7 3 -16 12 -15 11 -16 -9 -10 -28 9 -29 -7 -2 -36
11 -12 16 -24 11 -27 -5 -3 -7 -21 -5 -39 2 -20 -2 -39 -10 -48 -8 -7 -12 -23
-9 -34 4 -14 0 -20 -11 -20 -13 0 -15 -4 -6 -19 7 -15 6 -23 -6 -35 -8 -9 -16
-30 -16 -46 -1 -17 -5 -33 -10 -36 -5 -3 -6 -15 -2 -26 4 -13 2 -18 -4 -14
-12 7 -25 -21 -16 -35 3 -6 1 -16 -6 -24 -7 -8 -7 -15 -1 -19 11 -7 3 -37 -13
-48 -7 -5 -7 -8 2 -8 6 0 12 -11 12 -25 0 -14 7 -28 16 -32 12 -4 13 -8 3 -14
-18 -11 -20 -39 -2 -39 9 0 13 -7 9 -17 -16 -59 -17 -86 -5 -95 10 -7 11 -11
2 -14 -15 -7 -5 -34 13 -34 14 0 4 -16 -33 -55 -10 -10 -10 -14 1 -18 9 -4 17
-28 21 -61 4 -31 12 -56 17 -56 6 0 7 -11 4 -26 -4 -15 -2 -32 5 -40 9 -11 8
-14 -7 -14 -14 0 -15 -3 -6 -12 15 -15 15 -50 1 -82 -9 -20 -9 -29 1 -41 7 -8
10 -18 6 -22 -3 -3 -6 -1 -6 6 0 8 -6 7 -16 -4 -16 -15 -16 -18 0 -33 11 -11
16 -12 16 -4 0 7 5 10 10 7 17 -10 11 -25 -10 -25 -23 0 -26 -10 -7 -29 10
-11 10 -14 0 -18 -7 -3 -13 -9 -13 -14 0 -6 5 -7 11 -3 7 4 10 1 7 -7 -3 -8
-1 -26 3 -41 5 -17 3 -29 -4 -32 -7 -3 -3 -4 9 -1 18 5 20 1 16 -24 -3 -20 -8
-28 -18 -24 -10 4 -12 0 -8 -11 3 -9 11 -16 16 -16 6 0 5 -6 -2 -15 -7 -8 -16
-12 -21 -9 -5 3 -9 -1 -9 -9 0 -8 6 -15 13 -14 78 3 108 -19 35 -26 l-43 -3
33 -8 c39 -10 39 -9 44 -71 3 -27 3 -41 1 -30 -3 11 -9 25 -14 31 -5 6 -7 19
-3 28 4 11 1 16 -11 16 -10 0 -15 -7 -14 -18 1 -9 -2 -26 -6 -36 -6 -13 -4
-21 3 -24 7 -2 12 -10 12 -18 0 -8 7 -14 15 -14 19 0 20 -16 1 -27 -13 -7 -26
-62 -27 -108 -1 -71 3 -105 12 -111 7 -4 7 -10 0 -18 -20 -24 -8 -256 13 -256
7 0 19 -12 27 -28 7 -15 30 -52 49 -82 19 -30 43 -71 52 -90 10 -19 30 -55 44
-80 29 -50 28 -89 -3 -186 -16 -52 -16 -52 11 -104 16 -30 38 -103 52 -172 14
-66 34 -144 45 -174 21 -54 36 -73 26 -32 -3 13 -12 50 -20 83 -8 33 -13 85
-12 115 4 70 4 70 16 40 l10 -25 19 23 c11 13 24 21 29 17 13 -7 71 22 71 36
0 6 6 25 14 42 32 75 36 90 36 133 0 25 7 77 15 117 8 40 17 146 20 237 3 91
6 172 7 180 0 8 -2 48 -5 87 -6 61 -5 73 8 73 15 0 75 -54 75 -67 0 -5 10 -20
23 -33 32 -37 67 -88 67 -98 0 -5 9 -19 20 -32 11 -13 20 -29 20 -37 0 -7 7
-13 16 -13 8 0 12 -5 9 -10 -4 -6 -3 -25 1 -43 6 -31 7 -31 15 -9 5 13 13 20
19 17 6 -4 8 -10 5 -15 -3 -4 2 -13 9 -20 8 -6 18 -24 21 -40 3 -16 13 -31 21
-34 8 -3 14 -12 14 -20 0 -8 3 -16 8 -18 4 -1 29 -32 55 -66 50 -68 52 -68 38
5 -5 26 -14 80 -21 118 -7 39 -18 84 -25 100 -6 17 -22 63 -34 103 -12 39 -26
72 -32 72 -5 0 -9 6 -9 14 0 21 -41 88 -62 104 -11 8 -15 18 -11 25 11 18 10
40 -4 64 -7 13 -15 44 -17 70 -2 27 -13 80 -24 118 -29 107 -42 163 -42 188 0
13 -3 27 -7 30 -3 4 -7 32 -9 62 -1 31 -8 63 -15 71 -8 9 -14 31 -15 48 -1 17
-2 31 -3 31 -1 0 -3 36 -5 80 -2 44 -9 93 -15 108 -6 16 -11 41 -11 55 -1 94
-9 234 -13 238 -3 3 -1 19 4 36 5 19 4 38 -2 50 -6 11 -8 40 -4 66 8 60 9 217
2 229 -14 22 -7 168 8 193 4 6 2 17 -4 23 -11 14 6 88 26 108 13 13 6 39 -9
39 -6 0 -7 -7 -4 -16 3 -8 2 -12 -4 -9 -17 11 -11 30 13 40 14 6 22 18 21 33
l-1 22 25 -22 25 -23 -6 35 -7 35 25 -40 c14 -22 25 -47 25 -56 0 -9 7 -22 15
-29 12 -10 15 -10 15 4 0 17 -22 79 -51 142 -24 52 -24 54 9 55 18 0 22 3 12
7 -48 22 -58 35 -49 65 4 16 12 34 17 40 5 7 12 41 16 77 14 132 38 180 90
180 34 0 67 37 60 66 -5 18 1 26 25 38 38 20 55 48 39 64 -9 9 -9 12 0 12 6 0
9 7 6 15 -4 8 -9 13 -13 11 -8 -5 -8 0 -16 106 -4 42 -2 93 4 113 9 32 7 36
-21 56 -32 23 -33 43 -8 134 6 22 13 54 15 70 3 32 -23 105 -38 105 -15 0 -39
29 -32 40 3 6 -1 13 -9 16 -22 8 -20 34 2 35 10 0 12 3 5 6 -7 2 -13 13 -13
24 0 10 -6 19 -14 19 -8 0 -18 4 -21 10 -3 5 0 7 8 4 8 -3 17 2 21 11 3 9 0
18 -7 21 -8 3 -11 20 -8 50 2 26 -1 44 -6 41 -5 -3 -16 7 -25 23 -13 23 -14
30 -3 34 7 2 16 -2 19 -10 3 -8 13 -13 23 -13 17 1 17 2 1 6 -10 2 -18 8 -18
13 0 5 7 7 15 4 9 -4 15 0 15 9 0 8 -8 14 -17 13 -10 0 -19 9 -23 24 -4 16
-12 24 -23 22 -12 -2 -17 4 -17 23 0 22 4 25 20 20 16 -5 19 -2 19 22 -1 15 2
47 6 71 6 30 4 42 -4 42 -7 0 -9 -4 -6 -10 3 -5 -1 -10 -9 -10 -17 0 -12 25
12 52 16 19 8 118 -12 131 -8 5 -8 9 1 15 7 4 14 23 15 41 1 18 8 35 15 38 8
3 10 15 6 34 -3 18 -1 29 6 29 6 0 11 -7 11 -15 0 -8 7 -15 15 -15 8 0 15 -8
15 -17 0 -13 4 -11 13 7 17 33 48 40 40 9 -4 -15 -3 -20 5 -15 8 5 10 23 7 49
-5 35 -4 38 5 18 10 -23 11 -23 30 -6 10 9 16 23 13 31 -4 10 0 12 11 8 9 -3
23 -1 30 5 11 9 15 9 19 -1 3 -7 6 -1 6 15 1 20 6 27 21 27 16 0 18 4 10 24
-10 27 13 56 44 56 16 0 46 22 46 34 0 2 -12 6 -27 8 l-28 4 36 16 c20 9 40
22 45 29 7 12 5 12 -9 1 -14 -12 -20 -10 -42 12 -14 14 -25 30 -25 36 0 15 30
13 30 -2 1 -7 7 2 15 20 8 18 18 31 22 29 5 -3 13 5 19 18 9 19 9 25 -2 29 -8
3 -14 10 -14 15 0 6 6 8 13 6 7 -3 12 4 12 20 0 14 -3 25 -7 25 -5 0 -8 11 -8
25 0 21 5 25 32 25 17 0 28 3 25 7 -4 3 1 12 11 20 9 8 12 12 5 9 -16 -9 -26
11 -11 21 7 4 18 8 23 8 6 0 11 5 13 10 2 6 10 14 18 18 8 4 14 17 14 27 0 11
6 20 13 20 9 0 9 2 -1 8 -13 9 -7 68 8 77 5 3 6 -5 4 -17 -4 -21 -4 -21 4 -3
5 11 7 26 4 33 -2 7 4 19 14 27 11 8 14 15 8 15 -7 0 -14 9 -17 19 -4 16 1 21
21 23 31 4 54 55 31 69 -7 4 -10 11 -6 15 3 4 13 2 20 -5 11 -9 14 -5 15 20 0
17 5 36 10 42 16 21 22 60 10 74 -7 9 -7 13 1 13 7 0 11 6 10 13 -5 42 2 59
21 54 13 -3 20 0 20 9 0 8 5 14 11 14 6 0 9 -9 6 -20 -6 -24 8 -27 17 -4 4 11
-1 22 -13 30 -10 7 -21 23 -24 34 -4 18 -3 19 9 9 18 -15 27 -7 18 15 -4 9
-13 15 -20 12 -8 -3 -14 1 -14 9 0 8 5 15 11 15 13 0 5 100 -11 130 -13 25
-13 30 4 30 9 0 13 14 13 45 0 25 3 48 6 52 4 3 2 12 -4 19 -7 8 -7 14 1 19 5
3 10 11 10 16 0 6 -4 7 -10 4 -6 -3 -7 1 -4 9 3 9 1 16 -5 16 -6 0 -11 -13
-11 -29 0 -17 -6 -31 -16 -35 -25 -10 -25 -8 -9 24 9 17 12 30 8 30 -5 0 -1 5
7 10 13 9 13 12 -1 23 -19 14 -19 99 -1 105 7 2 12 11 11 20 0 11 -2 12 -6 5
-2 -7 -11 -13 -19 -13 -8 0 -11 6 -8 15 5 13 2 14 -19 6 -25 -10 -25 -9 -22
32 4 54 3 53 17 39 18 -18 30 -14 17 6 -11 18 -13 18 -52 0 -28 -14 -42 -17
-50 -9 -8 8 -5 11 12 11 30 0 61 17 61 35 0 7 6 16 13 18 9 4 9 6 -1 6 -8 1
-16 -8 -19 -18 -3 -12 -11 -17 -20 -14 -8 3 -12 12 -9 19 3 8 1 14 -4 14 -5 0
-12 11 -16 24 -3 14 -14 32 -25 42 -10 9 -19 25 -19 34 0 10 -11 25 -25 34
-14 9 -25 21 -25 26 0 10 -35 51 -116 136 -31 33 -44 40 -52 32 -9 -9 -12 -8
-12 3 0 15 -87 79 -107 79 -6 0 -18 9 -28 20 -10 11 -36 25 -57 32 -21 6 -38
16 -38 22 0 6 -8 16 -19 23 -19 12 -35 53 -21 53 5 0 10 12 12 27 3 24 9 29
43 35 22 4 63 7 92 7 59 1 73 15 71 72 -2 55 1 69 15 69 7 0 23 14 35 30 13
17 29 30 37 30 8 0 15 5 15 10 0 6 -4 10 -10 10 -5 0 -7 6 -4 14 3 8 12 12 20
9 10 -4 12 0 8 11 -3 9 0 18 8 21 16 6 13 61 -4 71 -5 3 -9 0 -7 -7 1 -8 1
-22 0 -31 -1 -17 -2 -17 -21 -1 -11 10 -20 24 -20 32 0 8 3 12 6 8 4 -3 13 0
20 8 11 10 12 20 4 40 -8 21 -13 24 -28 16 -14 -8 -19 -6 -19 5 0 7 3 14 6 14
3 0 5 19 3 43 -3 34 -8 43 -23 44 -11 1 -19 -5 -19 -13 0 -8 5 -14 10 -14 6 0
10 -5 10 -12 0 -9 -3 -9 -12 0 -17 17 -29 15 -22 -3 4 -8 3 -15 0 -15 -4 0
-11 12 -17 27 -7 19 -6 28 2 34 17 10 0 32 -21 26 -14 -3 -18 1 -17 14 1 11 8
19 17 19 10 0 4 10 -17 29 -18 15 -29 32 -25 36 4 4 -7 5 -23 2 -28 -5 -31 -3
-30 21 0 15 6 33 13 40 6 7 11 23 11 35 -1 16 -3 17 -6 5 -2 -9 -11 -19 -19
-22 -11 -4 -14 -1 -10 12 15 51 17 72 8 72 -6 0 -14 -5 -17 -10 -4 -6 -10 -8
-15 -5 -5 3 -13 -3 -19 -12 -9 -16 -10 -16 -11 -2 0 21 -24 31 -39 16 -8 -8
-11 -8 -11 1 0 7 5 12 10 12 6 0 10 5 10 11 0 6 -9 8 -20 4 -15 -5 -18 -3 -14
9 3 9 1 16 -4 16 -6 0 -13 8 -15 18 -3 9 -5 2 -6 -15 -1 -35 -15 -44 -25 -17
-3 8 -10 12 -16 9 -5 -3 -15 -3 -22 1 -8 5 -6 9 6 14 16 5 17 8 4 21 -8 8 -13
19 -11 26 5 14 -8 22 -24 16z m-8 -72 c3 -5 1 -12 -5 -16 -5 -3 -10 1 -10 9 0
18 6 21 15 7z m89 -57 c9 -22 -3 -32 -14 -14 -12 19 -12 30 -1 30 5 0 12 -7
15 -16z m143 -36 c-3 -8 -6 -5 -6 6 -1 11 2 17 5 13 3 -3 4 -12 1 -19z m-67
-29 c0 -4 -11 -10 -25 -13 -36 -9 -39 -9 -43 3 -2 6 6 11 17 11 15 0 21 6 21
23 1 21 1 22 15 3 8 -11 15 -23 15 -27z m-510 -29 c0 -5 -5 -10 -11 -10 -5 0
-7 5 -4 10 3 6 8 10 11 10 2 0 4 -4 4 -10z m680 -210 c0 -5 -5 -10 -11 -10 -5
0 -7 5 -4 10 3 6 8 10 11 10 2 0 4 -4 4 -10z m-846 -301 c-3 -5 -10 -7 -15 -3
-5 3 -7 10 -3 15 3 5 10 7 15 3 5 -3 7 -10 3 -15z m56 -59 c0 -5 -4 -10 -10
-10 -5 0 -10 5 -10 10 0 6 5 10 10 10 6 0 10 -4 10 -10z m-543 -426 c-15 -13
-29 -24 -33 -24 -4 0 -16 -8 -27 -17 -18 -17 -18 -17 0 15 10 17 23 32 29 32
6 0 19 9 30 21 12 13 20 16 22 9 3 -7 -7 -23 -21 -36z m-87 -47 c0 -13 -10
-32 -22 -43 -14 -12 -18 -13 -10 -3 6 9 9 18 6 22 -8 8 5 47 17 47 5 0 9 -11
9 -23z m1694 -172 c21 -16 31 -45 15 -45 -5 0 -9 5 -9 10 0 6 -7 10 -15 10 -8
0 -15 7 -15 16 0 8 -4 12 -10 9 -5 -3 -10 -1 -10 4 0 15 21 13 44 -4z m-1800
-10 c-4 -8 -10 -15 -14 -15 -5 0 -10 -9 -12 -20 -2 -14 -7 -17 -18 -10 -12 7
-11 13 10 34 26 29 42 34 34 11z m1852 -50 c-3 -8 3 -19 12 -25 14 -9 12 -10
-8 -4 -30 8 -43 26 -27 36 19 12 30 9 23 -7z m9 -53 c-3 -3 -11 0 -18 7 -9 10
-8 11 6 5 10 -3 15 -9 12 -12z m-1971 -61 c-9 -10 -26 18 -18 30 5 9 9 8 14
-7 4 -10 6 -21 4 -23z m1966 -1 c0 -5 -4 -10 -10 -10 -5 0 -10 5 -10 10 0 6 5
10 10 10 6 0 10 -4 10 -10z m-2090 -290 c0 -5 -4 -10 -10 -10 -5 0 -10 5 -10
10 0 6 5 10 10 10 6 0 10 -4 10 -10z m-6 -116 c3 -8 2 -12 -4 -9 -6 3 -10 10
-10 16 0 14 7 11 14 -7z m46 -23 c0 -6 -4 -13 -10 -16 -5 -3 -10 1 -10 9 0 9
5 16 10 16 6 0 10 -4 10 -9z m2120 -51 c0 -5 -5 -10 -11 -10 -5 0 -7 5 -4 10
3 6 8 10 11 10 2 0 4 -4 4 -10z m-2070 -26 c0 -8 -4 -12 -10 -9 -5 3 -10 10
-10 16 0 5 5 9 10 9 6 0 10 -7 10 -16z m40 -47 c0 -10 7 -20 16 -24 11 -4 12
-8 4 -13 -9 -6 -9 -13 -1 -29 13 -24 36 -29 27 -6 -3 8 -1 15 4 15 11 0 13
-11 4 -34 -9 -24 -27 -19 -46 12 l-17 27 -1 -34 c0 -41 -9 -36 -20 13 -6 26
-5 34 4 29 8 -4 7 -2 -1 7 -8 8 -9 20 -3 36 5 13 7 32 3 41 -5 15 -3 14 10 -2
9 -11 17 -28 17 -38z m30 -138 c0 -5 -4 -9 -10 -9 -5 0 -10 7 -10 16 0 8 5 12
10 9 6 -3 10 -10 10 -16z m2035 -119 c3 -5 1 -10 -4 -10 -6 0 -11 5 -11 10 0
6 2 10 4 10 3 0 8 -4 11 -10z m-9 -47 c-10 -10 -19 5 -10 18 6 11 8 11 12 0 2
-7 1 -15 -2 -18z m-21 -23 c-3 -5 -11 -10 -16 -10 -6 0 -7 5 -4 10 3 6 11 10
16 10 6 0 7 -4 4 -10z m-1925 -40 c0 -5 -4 -10 -10 -10 -5 0 -10 5 -10 10 0 6
5 10 10 10 6 0 10 -4 10 -10z m0 -70 c0 -5 -2 -10 -4 -10 -3 0 -8 5 -11 10 -3
6 -1 10 4 10 6 0 11 -4 11 -10z m20 -52 c0 -13 -17 -9 -30 6 -6 8 -17 13 -25
10 -15 -6 -29 11 -20 26 6 10 75 -29 75 -42z m1787 -100 c-3 -8 -6 -5 -6 6 -1
11 2 17 5 13 3 -3 4 -12 1 -19z m-1647 -28 c0 -5 -2 -10 -4 -10 -3 0 -8 5 -11
10 -3 6 -1 10 4 10 6 0 11 -4 11 -10z m-6 -115 c3 -8 1 -15 -4 -15 -6 0 -10 7
-10 15 0 8 2 15 4 15 2 0 6 -7 10 -15z m39 -44 c-4 -4 -11 -10 -15 -15 -5 -5
-8 3 -8 19 0 24 2 26 15 15 9 -7 12 -16 8 -19z m-33 -35 c0 -3 -4 -8 -10 -11
-5 -3 -10 -1 -10 4 0 6 5 11 10 11 6 0 10 -2 10 -4z m1221 -479 c-8 -8 -11 -7
-11 5 0 9 -3 25 -6 35 -5 13 -1 11 11 -5 13 -18 14 -27 6 -35z m-101 -17 c0
-5 -4 -10 -10 -10 -5 0 -10 5 -10 10 0 6 5 10 10 10 6 0 10 -4 10 -10z m-382
-395 c-3 -3 -9 2 -12 12 -6 14 -5 15 5 6 7 -7 10 -15 7 -18z m-44 7 c2 -4 -11
-12 -30 -18 -30 -10 -34 -9 -34 7 0 14 7 19 29 19 17 0 32 -4 35 -8z m400
-107 c3 -8 1 -15 -3 -15 -5 0 -11 7 -15 15 -3 8 -1 15 3 15 5 0 11 -7 15 -15z
m6 -615 c0 -5 -5 -10 -11 -10 -5 0 -7 5 -4 10 3 6 8 10 11 10 2 0 4 -4 4 -10z
m-375 -430 c-19 -21 -45 -27 -45 -10 0 10 52 41 59 34 2 -2 -4 -13 -14 -24z
m320 -330 c3 -5 1 -10 -4 -10 -6 0 -11 5 -11 10 0 6 2 10 4 10 3 0 8 -4 11
-10z m-583 -180 c-14 -12 -19 -24 -15 -39 3 -12 1 -21 -6 -21 -20 0 -12 58 11
80 16 14 24 17 27 9 2 -7 -6 -20 -17 -29z m575 -45 c9 -24 -1 -27 -15 -5 -8
13 -8 20 -2 20 6 0 13 -7 17 -15z m-607 -55 c0 -5 -4 -10 -10 -10 -5 0 -10 5
-10 10 0 6 5 10 10 10 6 0 10 -4 10 -10z m510 -680 c0 -5 -2 -10 -4 -10 -3 0
-8 5 -11 10 -3 6 -1 10 4 10 6 0 11 -4 11 -10z m-10 -246 c0 -3 -5 -14 -11
-25 -10 -19 -29 -18 -29 2 0 6 4 7 10 4 6 -3 7 1 4 9 -4 11 0 16 10 16 9 0 16
-3 16 -6z m-40 -88 c0 -3 -4 -8 -10 -11 -5 -3 -10 -1 -10 4 0 6 5 11 10 11 6
0 10 -2 10 -4z m-6 -164 c-8 -52 -22 -28 -19 35 4 73 5 76 16 33 5 -19 6 -50
3 -68z m26 -83 c0 -5 -4 -9 -10 -9 -5 0 -10 7 -10 16 0 8 5 12 10 9 6 -3 10
-10 10 -16z m-13 -71 c-3 -8 -6 -5 -6 6 -1 11 2 17 5 13 3 -3 4 -12 1 -19z
m19 -55 c-3 -8 -6 -21 -6 -29 0 -9 -4 -13 -10 -9 -5 3 -7 12 -3 20 3 9 0 22
-6 29 -10 12 -8 13 9 9 13 -4 19 -11 16 -20z m-516 -45 c0 -19 -2 -20 -10 -8
-13 19 -13 30 0 30 6 0 10 -10 10 -22z m420 -40 c-1 -26 -3 -30 -10 -16 -6 9
-7 23 -4 32 9 25 14 19 14 -16z m-400 12 c0 -5 -5 -10 -11 -10 -5 0 -7 5 -4
10 3 6 8 10 11 10 2 0 4 -4 4 -10z m485 -54 c-4 -20 -12 -36 -17 -36 -6 0 -7
8 -3 18 4 9 8 26 10 37 3 28 4 29 11 23 3 -3 2 -22 -1 -42z m-5 -80 c0 -3 -4
-8 -10 -11 -5 -3 -10 -1 -10 4 0 6 5 11 10 11 6 0 10 -2 10 -4z m-80 -347 c0
-11 -4 -17 -10 -14 -5 3 -10 13 -10 21 0 8 5 14 10 14 6 0 10 -9 10 -21z m116
-36 c-7 -7 -46 16 -46 28 0 5 11 2 25 -7 14 -9 24 -19 21 -21z m-316 -70 c0
-28 -3 -34 -10 -23 -13 20 -13 60 0 60 6 0 10 -17 10 -37z m190 -40 c0 -7 5
-13 11 -13 5 0 7 -5 3 -12 -6 -9 -9 -9 -12 0 -2 7 -9 9 -14 6 -7 -4 -8 -2 -4
4 4 7 1 12 -8 12 -9 0 -16 4 -16 8 0 4 9 8 20 8 11 0 20 -6 20 -13z m-204
-191 c-2 -42 -4 -85 -5 -95 -1 -27 -25 -15 -29 14 -8 55 -9 129 -2 129 4 0 10
9 13 21 12 47 26 5 23 -69z m194 -353 c0 -10 -4 -19 -9 -19 -12 0 -23 29 -15
41 8 14 24 0 24 -22z m-18 -61 c-9 -9 -12 -7 -12 12 0 19 3 21 12 12 9 -9 9
-15 0 -24z m-32 -158 c0 -5 -4 -10 -10 -10 -5 0 -10 5 -10 10 0 6 5 10 10 10
6 0 10 -4 10 -10z"/>
<path d="M5350 9480 c0 -5 4 -10 9 -10 6 0 13 5 16 10 3 6 -1 10 -9 10 -9 0
-16 -4 -16 -10z"/>
<path d="M5410 9454 c0 -9 41 -44 52 -44 17 0 7 22 -12 27 -11 3 -20 9 -20 14
0 5 -4 9 -10 9 -5 0 -10 -3 -10 -6z"/>
<path d="M4342 9330 c0 -19 2 -27 5 -17 2 9 2 25 0 35 -3 9 -5 1 -5 -18z"/>
<path d="M4340 9265 c0 -8 2 -15 4 -15 2 0 6 7 10 15 3 8 1 15 -4 15 -6 0 -10
-7 -10 -15z"/>
<path d="M5531 9264 c0 -11 3 -14 6 -6 3 7 2 16 -1 19 -3 4 -6 -2 -5 -13z"/>
<path d="M5480 8869 c0 -5 5 -7 10 -4 6 3 10 8 10 11 0 2 -4 4 -10 4 -5 0 -10
-5 -10 -11z"/>
<path d="M3746 8224 c-18 -18 -20 -24 -6 -24 5 0 14 9 20 20 13 24 7 26 -14 4z"/>
<path d="M5870 8060 c0 -5 5 -10 11 -10 5 0 7 5 4 10 -3 6 -8 10 -11 10 -2 0
-4 -4 -4 -10z"/>
<path d="M5911 7954 c0 -11 3 -14 6 -6 3 7 2 16 -1 19 -3 4 -6 -2 -5 -13z"/>
<path d="M5950 7705 c0 -15 4 -24 10 -20 6 3 10 12 10 20 0 8 -4 17 -10 20 -6
4 -10 -5 -10 -20z"/>
<path d="M5976 7673 c-4 -5 -13 -8 -19 -8 -7 0 -13 -10 -15 -22 -4 -26 15 -31
24 -8 9 23 26 18 19 -5 -4 -11 -2 -20 4 -20 13 0 14 39 3 58 -5 7 -12 9 -16 5z"/>
<path d="M5951 7586 c-8 -10 -8 -16 3 -25 11 -9 15 -9 19 1 2 7 8 10 12 6 5
-5 1 -16 -8 -26 -22 -24 -23 -56 -2 -48 9 3 16 -1 17 -12 1 -9 4 8 7 38 4 30
5 61 3 68 -5 16 -37 15 -51 -2z"/>
<path d="M5983 7404 c-3 -8 -2 -19 3 -24 5 -5 10 1 10 16 2 27 -4 31 -13 8z"/>
<path d="M5955 7310 c-3 -5 -1 -10 4 -10 6 0 11 5 11 10 0 6 -2 10 -4 10 -3 0
-8 -4 -11 -10z"/>
<path d="M3970 6848 c0 -11 22 -10 40 2 11 8 9 9 -12 8 -16 -1 -28 -6 -28 -10z"/>
<path d="M3980 6770 c0 -5 5 -10 11 -10 5 0 7 5 4 10 -3 6 -8 10 -11 10 -2 0
-4 -4 -4 -10z"/>
<path d="M4760 5790 c0 -4 7 -11 16 -14 21 -8 21 -8 27 7 3 7 -5 13 -19 13
-13 1 -24 -2 -24 -6z"/>
<path d="M5254 5609 c-7 -12 15 -59 28 -59 4 0 8 7 8 16 0 8 -5 12 -10 9 -7
-4 -9 2 -4 19 6 26 -8 36 -22 15z"/>
<path d="M5275 5520 c-3 -5 1 -10 10 -10 9 0 13 5 10 10 -3 6 -8 10 -10 10 -2
0 -7 -4 -10 -10z"/>
<path d="M5270 5480 c0 -5 5 -10 10 -10 6 0 10 5 10 10 0 6 -4 10 -10 10 -5 0
-10 -4 -10 -10z"/>
<path d="M5290 5451 c0 -6 5 -13 10 -16 6 -3 10 1 10 9 0 9 -4 16 -10 16 -5 0
-10 -4 -10 -9z"/>
<path d="M4890 5070 c0 -11 2 -20 4 -20 2 0 6 9 9 20 3 11 1 20 -4 20 -5 0 -9
-9 -9 -20z"/>
<path d="M4910 4970 c0 -5 5 -10 11 -10 5 0 7 5 4 10 -3 6 -8 10 -11 10 -2 0
-4 -4 -4 -10z"/>
<path d="M4836 4885 c-3 -8 -1 -15 4 -15 13 0 22 18 11 24 -5 3 -11 -1 -15 -9z"/>
<path d="M4540 4329 c0 -5 5 -7 10 -4 6 3 10 8 10 11 0 2 -4 4 -10 4 -5 0 -10
-5 -10 -11z"/>
<path d="M5180 4186 c0 -2 7 -9 15 -16 13 -11 14 -10 9 4 -5 14 -24 23 -24 12z"/>
<path d="M5259 4105 c17 -34 31 -51 31 -39 0 7 -9 22 -21 35 -16 19 -18 20
-10 4z"/>
<path d="M5190 3951 c0 -11 4 -22 9 -25 4 -3 6 6 3 19 -5 30 -12 33 -12 6z"/>
<path d="M4385 2530 c-3 -5 -1 -10 4 -10 6 0 11 5 11 10 0 6 -2 10 -4 10 -3 0
-8 -4 -11 -10z"/>
<path d="M4370 2501 c0 -5 5 -13 10 -16 6 -3 10 -2 10 4 0 5 -4 13 -10 16 -5
3 -10 2 -10 -4z"/>
<path d="M4400 2500 c0 -5 5 -10 10 -10 6 0 10 5 10 10 0 6 -4 10 -10 10 -5 0
-10 -4 -10 -10z"/>
<path d="M4370 2415 c0 -8 5 -15 10 -15 6 0 10 7 10 15 0 8 -4 15 -10 15 -5 0
-10 -7 -10 -15z"/>
<path d="M4410 2409 c0 -5 5 -7 10 -4 6 3 10 8 10 11 0 2 -4 4 -10 4 -5 0 -10
-5 -10 -11z"/>
<path d="M4405 2350 c3 -5 8 -10 11 -10 2 0 4 5 4 10 0 6 -5 10 -11 10 -5 0
-7 -4 -4 -10z"/>
<path d="M4398 2323 c7 -3 16 -2 19 1 4 3 -2 6 -13 5 -11 0 -14 -3 -6 -6z"/>
<path d="M3347 2136 c-6 -16 2 -28 14 -20 12 7 11 34 0 34 -5 0 -11 -6 -14
-14z"/>
<path d="M3292 2068 c-14 -14 -16 -28 -2 -28 5 0 14 9 20 20 12 22 1 27 -18 8z"/>
<path d="M3246 1963 c-6 -14 -5 -15 5 -6 7 7 10 15 7 18 -3 3 -9 -2 -12 -12z"/>
<path d="M4750 1133 c0 -15 5 -35 10 -43 7 -11 10 -6 10 22 0 20 -4 40 -10 43
-6 4 -10 -6 -10 -22z"/>
</g>
</svg>
